<?xml version="1.0" encoding="UTF-8"?>
<svg width="31px" height="31px" viewBox="0 0 31 31" version="1.1" xmlns="http://www.w3.org/2000/svg" xmlns:xlink="http://www.w3.org/1999/xlink">
    <title>Shape</title>
    <g id="Website-Redesign" stroke="none" stroke-width="1" fill="none" fill-rule="evenodd">
        <g id="at_ease_Desktop" transform="translate(-968.000000, -135.000000)" fill="#FFFFFF" fill-rule="nonzero">
            <g id="New" transform="translate(-1.000000, 102.000000)">
                <g id="Group-4" transform="translate(954.000000, 24.000000)">
                    <path d="M45.7865827,38.1579513 L37.9764172,30.3477858 C37.8371662,30.2085347 37.6555344,30.135882 37.4617939,30.135882 L36.8381915,30.135882 C38.9148479,27.8897027 40.1862702,24.8927787 40.1862702,21.5931351 C40.1862702,14.6366388 34.5496314,9 27.5931351,9 C20.6366388,9 15,14.6366388 15,21.5931351 C15,28.5496314 20.6366388,34.1862702 27.5931351,34.1862702 C30.8927787,34.1862702 33.8897027,32.9148479 36.135882,30.8442459 L36.135882,31.4617939 C36.135882,31.6555344 36.2145891,31.8371662 36.3477858,31.9764172 L44.1579513,39.7865827 C44.4425077,40.0711391 44.9026415,40.0711391 45.1871979,39.7865827 L45.7865827,39.1871979 C46.0711391,38.9026415 46.0711391,38.4425077 45.7865827,38.1579513 Z M27.5931351,32.2488648 C21.7022118,32.2488648 16.9374054,27.4840584 16.9374054,21.5931351 C16.9374054,15.7022118 21.7022118,10.9374054 27.5931351,10.9374054 C33.4840584,10.9374054 38.2488648,15.7022118 38.2488648,21.5931351 C38.2488648,27.4840584 33.4840584,32.2488648 27.5931351,32.2488648 Z" id="Shape"></path>
                </g>
            </g>
        </g>
    </g>
</svg>